<svg width="733" height="414" viewBox="0 0 733 414" fill="none" xmlns="http://www.w3.org/2000/svg">
<g clip-path="url(#clip0_3_129)" filter="url(#filter0_d_3_129)">
<g clip-path="url(#clip1_3_129)">
<path d="M67.7038 72.198C67.0867 72.3111 65.0673 72.707 63.3283 73.0461C58.5602 74.0075 52.6138 77.3434 49.1358 81.0753C45.3212 85.1463 40.2165 95.5502 39.88 100.074C39.5995 102.901 39.7677 103.297 41.7873 105.502C43.358 107.311 44.0311 108.725 44.3677 110.93C44.7603 113.248 45.3212 114.322 46.7798 115.623C48.3506 117.036 48.9675 118.28 50.0334 122.408C50.7627 125.179 51.8845 128.458 52.6138 129.645C53.2871 130.833 53.9042 131.907 53.9042 132.02C53.9042 132.133 52.9504 132.416 51.8285 132.586C49.192 133.095 43.5263 137.448 40.7776 141.124C35.3362 148.305 33.0922 158.03 35.224 165.041C35.6728 166.511 38.5336 173.296 41.675 180.138C44.7603 187.036 48.6311 196.027 50.3139 200.154C51.9969 204.282 54.9699 210.219 56.8772 213.442C58.7845 216.608 60.2991 219.266 60.243 219.322C60.1308 219.379 57.9431 220.17 55.3627 221.075C48.5187 223.506 45.1531 225.203 41.675 228.086C38.141 231.027 27.9315 242.109 25.7997 245.275C24.6216 247.028 23.6119 247.707 20.9754 248.442C16.4877 249.799 13.2902 251.778 10.0927 255.17C2.23923 263.708 1.95876 274.678 9.36346 287.4C11.3829 290.849 13.739 293.506 19.7413 299.217C24.0047 303.288 29.5021 309.056 31.9142 312.109C37.5799 319.177 40.4969 321.778 51.2114 328.959C74.0988 344.451 82.7377 351.915 86.2157 359.322C87.9547 363.11 88.0668 363.732 87.9547 369.443C87.8985 373.175 88.123 376.002 88.5156 376.794C88.9084 377.472 89.1889 379.169 89.2449 380.526C89.2449 382.561 88.7961 383.466 86.9449 385.614C84.5889 388.272 82.962 392.965 82.5694 397.715L82.4573 399.807L69.499 399.976C57.1017 400.089 56.4845 400.202 55.4748 401.39C54.1846 402.973 54.1846 403.425 55.6431 404.839C56.8212 406.026 57.5504 406.026 156.505 405.97C211.367 405.97 256.973 405.744 257.983 405.517C259.386 405.235 259.778 404.782 259.947 403.425C260.283 400.259 259.498 400.089 243.398 400.089H228.813V387.82C228.813 381.034 228.533 374.306 228.196 372.836C227.859 371.366 226.008 366.39 224.045 361.753C221.24 354.855 220.342 351.971 219.389 345.978C217.93 337.327 216.64 333.143 212.882 324.718C209.404 316.858 208.787 313.975 209.179 306.85C209.46 302.327 209.348 300.518 208.506 298.03C206.543 292.036 201.887 288.417 193.584 286.439C191.228 285.816 189.209 285.138 189.041 284.912C188.872 284.629 189.546 283.046 190.555 281.406C195.828 272.812 196.67 264.274 194.202 244.258C193.024 234.645 192.967 222.602 194.033 211.067C195.604 193.765 193.809 183.304 186.236 165.607C184.609 161.762 182.309 154.807 181.019 149.605C178.382 139.258 176.643 135.469 172.043 130.267C170.36 128.345 168.229 125.461 167.331 123.935C165.424 120.655 160.936 116.301 157.739 114.662C152.354 111.891 147.249 111.721 134.066 113.983C126.325 115.34 120.491 115.453 117.293 114.266C111.459 112.174 106.915 106.972 102.035 96.7376C96.0886 84.3547 91.3205 78.6439 83.6353 74.9686C78.6988 72.5938 71.6867 71.4066 67.7038 72.198ZM75.389 78.3612C84.4767 80.0576 89.8058 85.0897 96.3131 98.038C101.137 107.65 103.662 111.326 108.037 115.284C112.357 119.242 116.508 120.768 122.959 120.768H128.176L120.771 127.949C115.218 133.377 113.03 135.922 111.908 138.353C110.225 142.028 110.001 144.912 111.347 146.269C113.198 148.135 115.218 146.948 116.339 143.329C117.517 139.597 119.032 137.731 128.064 129.08C137.544 119.977 139.676 118.676 146.071 118.28C153.475 117.771 160.207 121.503 162.731 127.44C165.592 134.282 164.919 141.35 160.207 153.111C158.412 157.521 155.888 164.363 154.597 168.264C151.568 177.141 149.044 182.287 142.817 192.069C139.676 196.988 136.759 202.473 134.795 207.279C133.112 211.406 131.429 215.364 131.037 216.043C130.251 217.569 127.839 218.813 124.193 219.662C120.21 220.566 115.162 222.658 108.654 226.164C100.576 230.574 98.2764 231.366 87.7304 233.684C72.9769 236.85 55.4748 241.544 53.9042 242.674C52.8383 243.466 52.2773 244.71 51.8285 247.311C51.0431 251.439 50.0334 253.191 45.5457 257.997C41.4507 262.408 40.9457 263.878 42.6287 267.327C44.2555 270.663 44.2555 271.511 42.6287 270.663C41.2824 269.928 39.3191 266.931 38.758 264.726C38.3092 262.804 36.8507 261.164 35.6166 261.164C35.0557 261.164 34.1581 260.542 33.5972 259.694C33.0362 258.789 32.0825 258.224 31.1849 258.224C30.1752 258.224 29.6704 257.828 29.39 256.81C29.1655 255.962 28.6607 255.17 28.2119 255.001C27.7631 254.831 27.3703 254.379 27.3703 253.926C27.3703 251.382 41.8433 234.758 47.1164 231.196C49.1358 229.896 54.8016 227.464 61.982 224.92C78.306 219.096 81.784 217.456 87.1692 213.329C94.2375 207.901 97.6033 205.865 105.681 202.19C109.664 200.38 113.984 198.175 115.274 197.327C119.874 194.274 122.678 187.319 119.874 185.792C118.191 184.888 117.013 185.623 115.386 188.676C114.544 190.203 114.04 190.881 114.264 190.259C114.432 189.581 115.162 185.623 115.778 181.326C117.517 170.017 117.798 168.943 121.332 161.422C124.417 154.864 126.886 146.382 126.886 142.085C126.942 139.823 125.652 138.636 123.744 139.088C122.061 139.54 121.893 139.88 120.379 146.891C119.649 150.284 118.022 154.807 116.003 159.104C112.637 166.172 110.449 174.88 110.449 180.76C110.449 182.23 110.169 183.418 109.944 183.418C109.047 183.418 107.42 177.311 106.915 172.279C106.298 165.607 104.335 163.402 101.586 166.172C100.632 167.133 100.464 167.868 100.745 170.187C101.698 178.498 102.428 181.326 104.896 186.414C107.532 191.956 108.037 194.104 106.747 195.122C106.354 195.461 103.886 196.649 101.306 197.836L96.5936 199.872L95.3034 194.726C92.5547 183.418 86.7766 175.671 80.9987 175.671C79.1474 175.671 77.6329 177.424 78.25 179.007C78.4182 179.46 80.045 180.817 81.8402 182.004C85.879 184.718 88.0108 188.733 89.9181 197.157C90.9838 201.964 91.0962 203.095 90.4229 203.83C89.5253 204.96 88.6277 205.073 88.6277 204.056C88.6277 201.851 85.0938 196.422 78.9793 189.015C73.1453 182.061 67.4234 173.862 67.4234 172.448C67.4234 171.657 72.1915 165.607 73.2574 165.041C73.9305 164.702 75.4452 164.419 76.6792 164.419C77.9134 164.419 79.989 163.797 81.2792 163.062C83.1303 161.988 83.8036 161.14 84.4205 159.048C84.8693 157.578 85.4864 155.768 85.7669 155.033L86.2718 153.676L87.8425 154.864C89.6936 156.39 90.8155 156.447 92.274 155.146C94.0132 153.563 93.6204 151.075 91.2083 148.418C89.2448 146.213 88.9644 144.799 90.5912 144.799C92.1619 144.799 97.2666 150.114 98.2764 152.771C99.4544 155.881 101.081 156.729 102.82 155.203C105.176 152.998 103.998 149.605 98.3887 142.537C96.2569 139.767 94.1813 136.996 93.8449 136.374C92.8911 134.565 93.1156 131.568 94.5179 127.836C95.5277 125.122 95.7522 123.369 95.6398 119.016C95.5277 115.001 95.7522 112.965 96.5374 110.986C98.4447 106.011 96.4814 99.3387 92.4985 97.4162C89.9181 96.1722 86.8888 97.5292 85.3743 100.752C84.5889 102.392 83.8036 103.24 83.0182 103.24C80.045 103.297 74.5476 101.94 71.6306 100.469C68.3769 98.8297 68.3209 98.8297 58.0552 98.9994C52.3333 99.0558 47.3409 98.9427 46.9481 98.66C45.2091 97.4726 50.4822 87.5778 55.026 83.4501C57.7747 80.9623 60.243 79.7183 64.7868 78.5875C68.5452 77.6261 71.0696 77.5697 75.389 78.3612ZM92.1619 105.841C92.1619 106.972 91.4888 109.12 90.6474 110.704C89.2449 113.361 89.1889 113.87 89.5815 118.959C90.0303 125.461 89.4693 126.931 85.3181 130.38C83.8036 131.624 81.1671 133.943 79.4841 135.526L76.2866 138.41L73.4817 137.335C71.9111 136.77 70.5647 136.261 70.4525 136.148C70.3404 136.091 70.8452 135.469 71.5184 134.791C72.5282 133.773 72.6403 133.264 72.1355 132.303C71.1818 130.607 68.7697 129.815 66.6379 130.55C64.1137 131.455 63.8892 131.342 64.2819 129.419C64.7307 127.045 62.9357 126.083 59.9625 127.045C58.8406 127.44 57.6626 127.497 57.4381 127.214C57.1576 126.931 56.765 125.179 56.5405 123.313C56.2041 120.372 56.3162 119.807 57.1576 119.524C58.2797 119.072 63.9454 121.956 67.5355 124.726C70.0599 126.705 71.8549 126.875 72.7525 125.179C73.3134 124.161 73.0329 123.595 70.733 121.277C67.9843 118.563 67.76 117.489 69.7795 117.489C70.8452 117.489 73.3134 114.944 73.3134 113.814C73.3134 113.531 72.5282 112.513 71.5744 111.552C69.6111 109.516 67.6477 109.347 60.1308 110.478C55.587 111.213 55.4748 111.213 54.4089 109.856C53.7918 109.12 53.2871 108.272 53.2871 107.99C53.2871 107.537 63.1038 105.049 64.9551 105.049C65.5161 105.049 67.816 105.841 70.0599 106.746C73.7622 108.329 74.9964 108.498 81.8402 108.725L89.5253 108.894L90.3107 106.406C91.2643 103.353 92.1619 103.127 92.1619 105.841ZM59.7942 138.636C69.8354 141.011 78.0256 144.46 78.0256 146.326C78.0256 147.4 78.0817 147.4 75.4452 146.326C73.3696 145.421 67.1989 145.082 65.4599 145.76C64.9551 145.93 64.1137 147.513 63.6088 149.209C62.9917 151.188 61.4772 153.676 59.4016 156.107C57.6064 158.256 56.0358 160.574 55.8113 161.366C55.587 162.384 56.3724 164.589 58.6161 169.112C63.0478 177.82 67.3672 184.322 74.4914 192.634C80.7743 200.041 83.2987 204.338 83.2987 207.618C83.2987 209.201 82.906 209.766 80.8304 211.124C78.1939 212.82 68.0965 216.665 66.3575 216.665C64.3942 216.665 59.4016 207.392 53.6797 193.086C51.6041 187.941 48.014 179.686 45.77 174.823C40.4409 163.175 40.1043 162.101 40.4969 157.182C40.9457 150.679 45.0408 143.442 50.5384 139.427C53.1749 137.448 54.4089 137.335 59.7942 138.636ZM172.604 140.784C173.053 141.689 174.399 146.099 175.465 150.623C177.877 160.179 178.831 163.119 182.533 171.77C188.48 185.792 189.602 195.065 187.919 216.212C186.909 228.652 187.133 236.002 188.76 246.18C190.499 256.81 189.994 267.892 187.526 274.451C184.385 282.65 178.494 286.269 165.704 287.796C154.597 289.152 128.512 284.968 119.537 280.332C118.583 279.823 115.049 276.657 111.74 273.321C102.82 264.274 95.3594 260.203 82.7937 257.658C76.5111 256.358 74.8281 256.414 73.9867 258.11C73.4817 259.015 74.0427 261.786 74.7159 261.786C74.8842 261.786 78.25 262.577 82.2328 263.595C95.5277 266.931 102.54 271.398 108.766 280.501C111.571 284.629 118.415 298.821 122.51 308.999C124.081 312.9 127.615 320.647 130.364 326.131C135.356 336.253 136.422 337.723 143.154 343.773C147.81 347.957 149.38 354.403 146.912 359.548C145.622 362.206 140.517 367.747 132.383 375.324C130.364 377.189 127.783 380.186 126.661 381.996C124.193 385.897 122.791 386.293 122.791 383.07C122.791 381.826 122.566 380.469 122.286 380.017C121.557 378.829 119.425 379.734 118.415 381.6C117.91 382.504 117.517 382.844 117.517 382.448C117.461 381.317 115.33 381.543 114.881 382.731C114.488 383.749 114.432 383.692 113.647 382.674C112.861 381.6 112.749 381.543 111.683 382.505C111.067 383.07 110.113 384.597 109.552 385.897C108.879 387.367 108.093 388.215 107.42 388.215C105.625 388.215 105.625 387.254 107.252 383.975C108.991 380.469 111.515 371.535 113.422 362.093C114.993 354.403 114.713 349.879 112.188 341.455C108.486 329.015 103.83 321.891 89.5815 306.963C84.645 301.818 77.9696 294.468 74.7159 290.566C67.5917 282.085 64.338 278.918 58.7845 275.243C53.6235 271.794 48.5749 266.535 48.5749 264.613C48.5749 263.821 49.248 262.521 50.0896 261.729C52.4457 259.524 56.1479 253.644 56.8212 251.043C57.1576 249.799 57.8869 248.498 58.4478 248.216C59.8504 247.424 68.0405 246.01 77.4646 244.823C84.4767 243.975 96.4252 241.77 108.935 238.999C114.881 237.642 121.388 237.868 129.859 239.565C143.771 242.335 151.4 242.052 162.282 238.321C170.08 235.663 172.829 232.779 170.192 230.065C168.902 228.765 168.453 228.878 163.741 231.14C161.441 232.27 157.907 233.571 155.775 234.08C150.783 235.267 143.995 236.002 143.995 235.267C143.995 233.854 146.127 232.044 150.839 229.387C159.814 224.298 163.741 219.605 160.544 217.852C158.692 216.891 157.795 217.117 154.878 219.548C151.961 222.036 146.463 225.259 146.015 224.807C145.846 224.694 146.127 223.676 146.576 222.545C147.641 219.944 152.466 202.812 153.756 197.214C154.261 194.839 154.822 192.917 154.99 192.917C155.102 192.917 156.336 193.482 157.683 194.161C162.17 196.479 169.519 194.783 171.651 190.938C172.324 189.751 172.38 189.128 171.931 188.337C170.978 186.81 169.126 186.754 166.434 188.111C163.685 189.581 161.161 189.694 159.59 188.506C158.524 187.715 158.468 187.602 159.422 185.623C160.039 184.322 161.385 183.022 162.956 182.117C166.097 180.364 167.107 178.103 165.536 176.293C164.302 174.993 162.282 174.71 161.217 175.784C158.805 178.272 160.263 171.487 165.592 156.107C167.892 149.435 169.519 143.668 169.743 141.406C170.024 138.297 170.192 137.788 170.921 138.41C171.37 138.805 172.156 139.823 172.604 140.784ZM72.5841 153.28C72.9769 153.676 73.3134 154.637 73.3134 155.372C73.3134 156.503 73.0891 156.729 72.3037 156.39C71.7427 156.164 70.3964 155.881 69.3307 155.655C66.7501 155.259 66.4696 154.581 68.4331 153.506C70.4525 152.376 71.6867 152.319 72.5841 153.28ZM23.4436 268.119C23.9486 269.023 25.0704 270.493 25.968 271.398C28.0436 273.321 35.6166 277.448 38.8703 278.409C41.8995 279.314 45.4336 278.466 47.3969 276.374L48.7432 274.847L51.2676 277.109C52.6138 278.296 54.9139 280.106 56.3162 281.067L58.8966 282.876L56.9333 283.046C55.8674 283.159 53.3431 282.82 51.3236 282.367C45.2091 280.841 37.5239 280.049 36.2337 280.784C34.8312 281.519 34.6069 284.403 35.7849 285.421C36.2337 285.76 39.0384 286.382 42.1238 286.778C49.3042 287.626 49.8651 287.965 47.1726 289.661C44.7603 291.132 43.8627 292.489 43.8627 294.637C43.8627 296.56 44.7043 297.182 49.192 298.539C53.5675 299.896 57.4381 302.553 59.1771 305.38C59.8504 306.568 60.6918 309.621 61.1967 312.9C62.2624 320.025 62.5429 321.325 64.2819 325.509C66.8063 331.673 65.6844 331.56 55.2503 324.605C44.4798 317.424 42.797 316.01 37.0751 308.999C34.3824 305.72 30.3997 301.309 28.1558 299.217C18.1707 289.831 16.4315 288.022 14.6366 285.138C11.5512 280.275 9.53177 273.49 9.86823 269.193C10.317 263.369 13.234 258.676 18.1145 255.849L21.1998 254.096L21.8729 260.259C22.2656 263.652 22.9388 267.157 23.4436 268.119ZM125.595 288.87C133.673 291.527 145.285 293.337 155.775 293.676C166.265 294.015 169.407 293.619 177.709 291.075L182.87 289.492L189.658 291.188C197.119 293.054 200.092 294.468 201.943 297.012C203.065 298.482 203.233 299.839 203.57 307.981C204.018 318.498 203.906 318.046 208.394 328.563C210.75 334.104 212.04 338.118 212.882 342.812C215.013 353.951 215.686 356.495 218.435 362.828C222.755 372.892 222.923 373.854 222.923 387.763V400.146L155.607 399.976L88.3473 399.807L88.4596 397.545C88.6839 393.813 89.6936 390.873 91.3766 389.177C93.2839 387.254 95.2472 386.745 97.9399 387.424C99.791 387.876 100.128 388.272 100.632 390.251C101.418 393.644 103.774 394.944 108.374 394.492C110.281 394.322 113.871 393.644 116.339 392.965C118.752 392.343 122.678 391.551 125.035 391.212C128.12 390.816 131.093 389.799 135.805 387.593C142.368 384.54 143.939 384.144 155.102 382.957C166.658 381.713 175.802 374.532 178.831 364.298C179.504 361.98 180.177 359.944 180.29 359.831C180.402 359.718 181.58 360.566 182.982 361.81C186.124 364.524 193.079 368.086 195.267 368.086C197.006 368.086 198.801 366.729 198.801 365.429C198.801 364.241 197.062 362.997 192.743 361.018C188.087 358.926 183.15 354.459 180.963 350.388C180.121 348.862 178.775 345.13 177.933 342.19C175.185 332.351 172.156 326.98 165.985 321.099C157.346 312.844 145.958 307.981 143.939 311.713C142.873 313.749 144.051 315.445 147.024 316.35C154.709 318.668 162.002 323.87 166.322 330.146C169.687 334.896 170.978 338.118 173.221 346.826C175.69 356.721 174.456 363.789 169.126 369.613C164.751 374.475 160.656 376.228 151.288 377.303C142.48 378.264 139.9 378.886 136.478 380.921C135.132 381.713 134.01 382.165 134.01 381.939C134.01 381.769 137.768 377.811 142.424 373.175C152.634 363.11 153.7 361.244 153.7 354.12C153.7 349.823 153.475 348.975 151.736 345.695C150.39 343.151 148.202 340.606 144.837 337.496C140.124 333.199 139.788 332.69 135.525 323.983C133.112 319.007 129.522 311.034 127.615 306.285C125.652 301.592 123.015 295.316 121.669 292.432C120.322 289.548 119.256 287.004 119.256 286.891C119.256 286.721 119.705 286.778 120.266 287.004C120.827 287.287 123.239 288.078 125.595 288.87ZM102.371 332.408C103.606 334.726 104.335 336.592 104.054 336.592C102.428 336.592 93.2839 323.926 93.3399 321.778C93.3961 320.194 100.015 327.997 102.371 332.408Z" fill="#002952" style="fill:#002952;fill:color(display-p3 0.0000 0.1608 0.3216);fill-opacity:1;"/>
<path d="M168.341 198.572C163.909 200.72 160.319 204.226 159.646 206.996C159.197 208.806 160.656 210.728 162.563 210.728C163.909 210.728 165.817 209.032 165.817 207.901C165.817 206.77 169.575 204.226 172.604 203.265C178.438 201.342 178.775 201.172 178.775 199.476C178.775 198.628 178.438 197.61 178.046 197.214C176.699 195.857 172.716 196.423 168.341 198.572Z" fill="#002952" style="fill:#002952;fill:color(display-p3 0.0000 0.1608 0.3216);fill-opacity:1;"/>
<path d="M138.385 350.501C135.525 353.384 136.198 357.342 139.62 357.342C141.078 357.342 143.434 355.307 143.434 354.063C143.434 353.667 143.546 352.932 143.771 352.423C144.163 351.405 142.032 349.031 140.742 349.031C140.237 349.031 139.171 349.709 138.385 350.501Z" fill="#002952" style="fill:#002952;fill:color(display-p3 0.0000 0.1608 0.3216);fill-opacity:1;"/>
<path d="M45.4336 401.22C44.1432 402.634 44.1994 403.878 45.5457 405.065C46.9481 406.366 48.2944 406.309 49.7529 404.896C50.9872 403.595 50.8188 402.125 49.248 400.881C47.9578 399.807 46.5555 399.92 45.4336 401.22Z" fill="#002952" style="fill:#002952;fill:color(display-p3 0.0000 0.1608 0.3216);fill-opacity:1;"/>
<path d="M80.7493 59.223C82.8121 59.0328 86.9376 58.6525 89.0226 58.2477C90.4877 57.9632 91.9337 57.4834 93.2595 56.794C94.8662 55.9587 97.5431 54.4265 98.6627 53.2353C99.5325 52.3099 99.7668 50.9047 99.9771 49.6476C100.233 48.1165 100.243 45.9157 100.199 44.0483C100.151 42.0375 100.177 39.3758 99.6905 37.583C99.2601 35.9972 98.0272 34.5715 97.2802 33.291C96.6125 32.1466 95.9631 30.9877 95.2077 29.9002C94.4337 28.7858 93.6792 27.5252 92.6356 26.6053C91.4249 25.538 89.6226 24.3301 87.9436 23.4965C86.2618 22.6613 84.3133 22.3122 82.5448 21.5949C80.5228 20.7747 77.5659 19.5944 75.8106 18.5749C74.1204 17.5932 72.8751 16.0907 72.4567 14.7591C71.8889 12.9527 70.3109 10.986 69.3649 9.24452C68.4786 7.61306 67.2205 5.53244 66.7803 4.30983C66.5095 3.55743 66.2871 2.42575 66.7241 1.90918C67.1196 1.44178 68.2342 1.20172 68.9912 1.3742C70.1331 1.63444 72.1167 2.63521 73.576 3.47057C75.071 4.32628 76.603 5.35836 77.9608 6.50845C79.3686 7.70081 80.803 9.41824 82.022 10.6246C83.0901 11.6816 84.1904 12.7054 85.2742 13.7461C86.5602 14.9813 88.6053 16.8045 89.7384 18.0353C90.6133 18.9855 90.9731 20.4602 92.0738 21.131C93.272 21.8615 95.2865 22.256 96.9283 22.4177C98.57 22.5792 100.786 22.349 101.924 22.1006C102.632 21.9464 103.883 21.6458 103.757 20.9277C103.603 20.0494 101.848 18.0698 100.999 16.8307C100.23 15.7102 99.3639 14.6439 98.6592 13.4933C97.9569 12.3468 97.2861 10.8606 96.7701 9.92738C96.3887 9.23726 96.222 8.32141 95.5631 7.89364C94.3865 7.1301 90.8173 8.06011 89.3473 9.57905C88.6472 10.3024 87.8223 10.9096 87.1989 11.7011C86.305 12.8358 84.6806 15.0921 83.984 16.3874C83.4743 17.3353 83.3389 18.4432 83.0194 19.4723C82.6233 20.7478 82.5067 22.7281 81.6079 24.041C80.6589 25.4274 78.6997 26.8965 77.3246 27.7906C76.126 28.5698 74.4739 28.8271 73.3571 29.4059C72.38 29.9126 71.4459 30.5286 70.6244 31.264C69.7773 32.0224 69.2699 33.887 68.275 33.9565C67.2798 34.0261 65.5585 32.4549 64.6541 31.681C63.901 31.0367 63.3913 30.1443 62.8481 29.3129C62.1973 28.3167 61.3498 26.7525 60.7495 25.7046C60.2405 24.8164 59.7422 23.9217 59.2462 23.0261C58.6312 21.9156 57.6542 20.3622 57.0592 19.0412C56.4879 17.7724 56.0286 16.3854 55.677 15.1002C55.3393 13.8659 54.702 12.4204 54.9499 11.3297C55.1975 10.2393 56.2541 9.1198 57.1631 8.5567C58.0721 7.99377 59.3066 8.00739 60.4039 7.95185C61.5855 7.89187 63.2323 7.94265 64.2531 8.19739C65.0966 8.40774 66.0303 8.76173 66.5284 9.47945C67.0736 10.2647 67.3739 11.8422 67.5239 12.9097C67.6621 13.8921 67.4472 14.8929 67.4286 15.8848C67.4069 17.045 67.2723 18.5478 67.3932 19.8711C67.5176 21.2341 67.8602 22.7471 68.1758 24.0643C68.4766 25.32 68.8178 26.572 69.2863 27.7743C70.061 29.7627 71.7661 33.8831 72.8239 35.9951C73.61 37.5646 74.7057 39.1603 75.6326 40.4457C76.4649 41.6001 77.4678 42.7301 78.3843 43.7069C79.2473 44.6264 80.1772 45.6061 81.1316 46.3058C82.0416 46.9728 83.236 47.261 84.1111 47.9042C84.9708 48.5361 85.8617 49.2298 86.3821 50.1653C87.0355 51.3394 87.7453 53.2863 88.0315 54.9498C88.3485 56.791 88.7501 59.6987 88.2841 61.2132C87.8752 62.5418 86.5149 63.5159 85.2353 64.0368C83.9228 64.5713 81.9544 64.7668 80.4099 64.419C78.8652 64.0713 77.0404 63.2678 75.9673 61.9506C74.8439 60.5714 74.1483 57.9346 73.6688 56.1437C73.2404 54.5436 72.6521 52.3683 73.0908 51.2057C73.5296 50.043 75.0687 49.4525 76.3015 49.1682C77.5482 48.8806 79.3814 49.1438 80.5703 49.4801C81.6383 49.7821 83.1776 50.4895 83.4359 51.1855C83.6941 51.8815 82.4969 52.8412 82.1199 53.6555C81.7566 54.4403 81.4191 55.242 81.1737 56.0719C80.885 57.0486 81.4496 59.0248 80.3873 59.5159C79.0835 60.1187 75.2618 60.1707 73.3515 59.6881C71.6148 59.2493 70.1215 57.9478 68.9256 56.6207C67.7295 55.2937 67.0258 53.0266 66.1749 51.7254C65.4915 50.6801 64.5179 49.5827 63.8211 48.8139C63.2616 48.1966 62.6712 47.5939 61.9935 47.1118C61.1951 46.5441 59.9472 45.3162 59.0309 45.4068C58.1145 45.4975 57.0125 46.648 56.4954 47.6558C55.958 48.7035 55.7555 50.5129 55.8062 51.6925C55.8522 52.7587 56.3906 53.7494 56.8001 54.7336C57.2157 55.7326 57.8114 56.6958 58.2995 57.6858C58.8405 58.7827 59.8038 60.1316 60.046 61.3156C60.2788 62.4539 60.27 63.9606 59.7524 64.7896C58.6969 66.48 55.3172 64.4667 54.2238 61.6426C53.5868 59.9971 53.2899 58.1897 52.7381 56.5602C52.1994 54.9692 51.6448 53.2516 50.9131 51.8645C50.2214 50.5534 49.2662 49.1857 48.3476 48.2373C47.512 47.3745 46.5219 46.5937 45.4009 46.1733C44.1946 45.7208 42.2677 45.3036 41.1093 45.5223C40.0295 45.7261 39.0512 46.5581 38.4508 47.4855C37.7645 48.5448 37.0685 50.3367 36.9925 51.8792C36.9135 53.4821 37.5164 55.7428 37.9769 57.1027C38.3443 58.1879 38.9287 59.2506 39.755 60.0385C40.7351 60.9733 42.2901 62.2676 43.858 62.7111C45.6568 63.2202 48.583 63.4932 50.5484 63.0927C52.4441 62.7063 54.1848 61.5794 55.6507 60.3078C57.1624 58.9964 58.7102 56.7502 59.6183 55.224C60.3564 53.9838 60.6302 52.5173 61.0996 51.1506C61.6718 49.4856 62.552 47.2503 63.0513 45.2338C63.5753 43.1181 64.2238 40.7512 64.2429 38.4573C64.2708 35.1255 63.7611 29.2679 63.219 25.2427C62.7223 21.5547 62.2387 17.5782 60.9898 14.3055C59.7801 11.1355 57.9378 6.85377 55.7258 5.60657C53.5138 4.35954 50.061 5.61117 47.7182 6.82299C45.3755 8.03464 42.6294 10.7704 41.6697 12.8772C40.7598 14.8745 41.4333 17.3312 41.9598 19.464C42.502 21.6607 43.8987 24.2375 44.9228 26.0577C45.8014 27.6195 46.9921 28.9829 48.1043 30.3855C49.2241 31.7975 50.7539 32.9423 51.6413 34.5299C52.5452 36.1472 53.0217 38.2 53.528 40.0894C54.0342 41.9786 54.6501 44.0966 54.679 45.8655C54.7059 47.5107 54.8825 49.5663 53.7018 50.7029C52.3268 52.0265 48.8541 53.1757 46.4286 53.8082C44.0684 54.4235 41.5841 54.5713 39.1474 54.4974C36.2751 54.4102 31.2616 54.0813 29.1939 53.2849C27.5278 52.643 26.5728 50.5973 27.0488 48.975C27.5029 47.4271 29.0998 45.3134 30.3941 43.6757C31.7134 42.0064 33.378 40.3712 34.9648 38.9583C36.5131 37.5794 38.3748 35.954 39.9142 35.1979C41.2197 34.5566 42.7895 34.0825 44.2022 34.4215C46.0421 34.8628 48.8352 36.5564 50.9536 37.8462C53.0471 39.121 55.1471 41.13 56.9131 42.1607C58.3539 43.0013 60.0066 43.4022 61.5504 44.0302C63.5154 44.8293 66.2023 46.3453 68.7032 46.9554C71.2943 47.5877 74.2871 47.6937 77.0967 47.8235C80.3023 47.9716 84.9404 47.9284 87.9366 47.8446C90.3209 47.7777 92.6963 47.1219 95.0735 47.32C97.8078 47.5479 102.056 49.2468 104.343 49.2115C105.982 49.1864 107.841 48.4515 108.796 47.1086C109.773 45.7348 110.102 42.6459 110.206 40.9676C110.289 39.6342 110.147 38.1571 109.422 37.0386C108.629 35.8144 106.541 34.6553 105.448 33.6229C104.529 32.7551 103.436 31.9755 102.864 30.8449C102.237 29.6058 102.741 27.3863 101.685 26.1892C100.155 24.4546 96.9741 24.3621 94.7187 24.8753C92.5287 25.3735 89.4549 26.5671 88.2049 27.7807C87.4855 28.4791 86.6522 29.8041 87.2193 30.6331C87.9192 31.6567 90.818 32.8144 92.4053 33.922C93.9042 34.9679 95.0062 36.7213 96.7433 37.2791C98.8031 37.9403 102.09 38.0789 104.764 37.8901C107.499 37.6971 111.172 36.8941 113.153 36.121C114.554 35.5742 116.913 34.7438 116.65 33.2523C116.224 30.8422 113.144 24.9239 110.598 21.661C108.093 18.4501 103.561 14.3322 101.378 13.675C99.5955 13.1386 97.7627 15.8627 97.4987 17.7186C97.1329 20.2898 98.5453 26.0485 99.1831 29.1023C99.678 31.4727 100.736 33.7552 101.325 36.0412C101.901 38.2742 102.339 40.5436 102.721 42.8182C103.169 45.4883 104.08 49.4725 104.014 52.0619C103.958 54.2342 103.371 57.1629 102.325 58.3549C101.294 59.5294 99.145 59.2778 97.7356 59.214C96.3842 59.1528 94.9158 58.8356 93.8689 57.9721C92.6228 56.9442 91.1551 54.4399 90.2586 53.0464C89.562 51.9639 89.102 50.7438 88.4896 49.6107C87.6768 48.1068 86.4266 45.2422 85.3822 44.0225C84.599 43.1078 83.3097 42.6539 82.2224 42.2921C81.1488 41.9351 79.8965 41.4003 78.8587 41.8525C77.6765 42.3677 76.2101 44.0538 75.1284 45.3831C73.9672 46.8102 72.807 48.9511 71.8917 50.4145C71.1183 51.6508 70.6763 53.1455 69.6355 54.1632C68.3213 55.4483 65.9233 57.2947 64.006 58.1253C62.1806 58.9162 59.7707 59.393 58.1323 59.1476C56.5934 58.9171 54.965 58.0037 54.1753 56.6527C52.938 54.5353 51.6458 48.9602 50.7079 46.4436C50.0852 44.7734 49.6933 42.9138 48.5472 41.5541C47.3477 40.1312 44.7029 38.3876 43.5117 37.906C42.8181 37.6256 41.5591 37.9283 41.3998 38.6643C41.2295 39.4504 41.9154 41.3821 42.4899 42.6233C43.3204 44.417 45.5133 47.2143 46.3822 49.427C47.1866 51.4754 46.344 55.1824 47.704 55.9005C49.0639 56.6187 52.7916 54.4562 54.5418 53.736C55.8511 53.1971 57.0141 52.3471 58.2054 51.5791C59.9432 50.4589 63.3164 48.6428 64.9683 47.0152C66.4094 45.5954 67.6112 43.312 68.1172 41.8132C68.5212 40.6168 68.4152 39.1467 68.0041 38.0231C67.5931 36.8998 66.8417 35.4617 65.6509 35.0723C63.805 34.4689 59.7882 34.9791 56.9293 34.4022C53.7478 33.7603 49.3259 32.6246 46.5609 31.221C44.1469 29.9956 42.075 27.7504 40.3388 25.9801C38.7476 24.3578 37.4843 20.8963 36.1437 20.5996C34.8029 20.3027 33.1891 22.7547 32.295 24.1997C31.401 25.6447 30.69 27.8051 30.7788 29.2697C30.8646 30.6846 31.7194 32.1151 32.8281 32.9873C33.9582 33.8764 35.9236 34.2911 37.5597 34.604C41.3908 35.3368 50.9956 36.7007 55.8148 37.3834C59.3598 37.8855 63.8536 38.2682 66.4747 38.6996C68.1923 38.9825 70.6045 39.4602 71.5411 39.9725C72.0892 40.2724 72.3928 41.2224 72.0941 41.774C71.7008 42.5003 70.3841 43.9117 69.1811 44.3306C67.9782 44.7494 66.1572 44.9387 64.8762 44.2868C63.4143 43.543 61.4379 41.6977 60.4099 39.8681C59.3029 37.8979 58.1879 34.175 58.2342 32.465C58.2685 31.206 59.7096 30.3916 60.6879 29.6081C62.0762 28.4964 64.4121 26.6941 66.5639 25.795C69.3094 24.648 73.9398 23.9194 77.1605 22.7257C80.1721 21.6094 84.0244 20.1739 85.888 18.6324C87.3498 17.4228 88.0593 15.3608 88.3417 13.4758C88.6983 11.0955 88.6976 6.59177 88.0282 4.35034C87.4836 2.52729 85.9508 0.288162 84.3251 0.0268675C82.6993 -0.234604 80.061 1.46637 78.2734 2.78222C76.3238 4.21766 74.4665 6.64608 72.6264 8.63896C70.2186 11.2469 65.8982 16.2651 63.8255 18.43C62.7086 19.5965 61.5741 21.2605 60.1901 21.6276C58.806 21.9947 56.976 21.2814 55.5212 20.6328C54.0177 19.9625 52.1762 18.2669 51.1693 17.6061C50.1747 16.9535 48.7732 18.0546 48.4011 19.495C48.0735 20.7629 48.7666 23.221 49.1836 24.5772C49.5116 25.6443 49.6325 27.2368 48.6809 27.8903C47.0009 29.0443 41.9188 28.9865 39.5683 30.0412C37.1406 31.1306 35.1801 33.8081 34.2303 36.0094C33.2804 38.2107 33.5259 41.7943 33.8685 43.249C34.0867 44.1753 35.3421 44.7184 36.2866 44.7381C37.4881 44.763 39.5209 43.8778 41.078 43.3989C42.608 42.9281 44.0514 42.1294 45.6294 41.8645C47.2754 41.5882 49.7494 43.0263 50.9545 41.7412C52.1597 40.4563 52.7314 36.4948 52.8604 34.1547C52.9804 31.9729 51.7433 29.364 51.7276 27.6996C51.7162 26.4722 52.0314 25.0011 52.7672 24.1691C53.5029 23.3372 54.9179 22.7149 56.1423 22.7082C58.3208 22.6965 62.81 23.4623 65.8383 24.0988C68.713 24.7032 71.5484 25.5265 74.3119 26.5281C77.1113 27.5427 80.6502 28.9693 82.6357 30.1873C84.0876 31.0779 85.2526 32.6009 86.2259 33.8362C87.1296 34.9833 88.4475 36.7825 88.4754 37.6003C88.5024 38.3966 87.1806 38.6819 86.3926 38.7435C85.3899 38.8219 83.7297 38.4666 82.4594 38.0705C80.8069 37.5552 77.981 36.5766 76.4782 35.6519C75.2428 34.8917 73.108 33.3761 73.4431 32.522C73.778 31.6679 76.6883 30.6798 78.4886 30.5273C81.3515 30.2846 87.9999 30.7709 90.6209 31.0662C91.8781 31.2077 93.7273 31.1214 94.2138 32.2985C94.7435 33.5799 94.1794 36.8426 93.7987 38.7543C93.45 40.505 92.7035 43.6448 91.9291 43.7686C91.1546 43.8926 90.2156 40.8201 89.1518 39.4982C87.9866 38.0502 85.941 35.6373 84.9374 35.0811C84.324 34.7409 83.521 35.5749 83.1309 36.1608C82.5694 37.0036 81.4389 38.7186 81.5688 40.1386C81.7219 41.8155 82.978 44.3826 84.05 46.2225C85.1145 48.0498 87.9654 49.9351 88.0006 51.1779C88.0357 52.4208 85.6475 53.1133 84.261 53.6796C82.6408 54.3412 78.9133 54.2395 78.2795 55.1477C77.6456 56.0561 79.5204 58.1053 80.4578 59.1298" stroke="#002952" style="stroke:#002952;stroke:color(display-p3 0.0000 0.1608 0.3216);stroke-opacity:1;" stroke-width="3" stroke-miterlimit="1.5" stroke-linecap="round" stroke-linejoin="round"/>
</g>
<path d="M271.28 208.296L277.04 205.672V166.184L271.28 163.56V162.856H291.376C295.685 162.856 299.568 163.859 303.024 165.864C306.48 167.827 309.189 170.557 311.152 174.056C313.115 177.555 314.096 181.501 314.096 185.896C314.096 190.333 313.115 194.301 311.152 197.8C309.189 201.299 306.48 204.051 303.024 206.056C299.568 208.019 295.685 209 291.376 209H271.28V208.296ZM290.8 206.888C294.085 206.888 297.051 205.949 299.696 204.072C302.341 202.195 304.411 199.656 305.904 196.456C307.397 193.213 308.144 189.693 308.144 185.896C308.144 182.099 307.397 178.6 305.904 175.4C304.411 172.2 302.341 169.661 299.696 167.784C297.051 165.907 294.085 164.968 290.8 164.968H282.672V206.888H290.8ZM334.236 209.64C331.164 209.64 328.39 208.893 325.916 207.4C323.484 205.907 321.585 203.859 320.22 201.256C318.854 198.611 318.172 195.645 318.172 192.36C318.172 189.075 318.854 186.131 320.22 183.528C321.585 180.925 323.484 178.877 325.916 177.384C328.39 175.891 331.164 175.144 334.236 175.144C337.308 175.144 340.06 175.891 342.492 177.384C344.924 178.877 346.822 180.925 348.188 183.528C349.596 186.131 350.3 189.075 350.3 192.36C350.3 195.645 349.596 198.611 348.188 201.256C346.822 203.859 344.902 205.907 342.428 207.4C339.996 208.893 337.265 209.64 334.236 209.64ZM334.236 208.04C336.198 208.04 337.969 207.379 339.548 206.056C341.126 204.691 342.364 202.835 343.26 200.488C344.156 198.099 344.604 195.389 344.604 192.36C344.604 189.331 344.134 186.643 343.196 184.296C342.3 181.907 341.062 180.051 339.484 178.728C337.905 177.405 336.156 176.744 334.236 176.744C332.273 176.744 330.502 177.405 328.924 178.728C327.345 180.051 326.108 181.907 325.212 184.296C324.316 186.643 323.868 189.331 323.868 192.36C323.868 195.389 324.316 198.099 325.212 200.488C326.108 202.877 327.345 204.733 328.924 206.056C330.502 207.379 332.273 208.04 334.236 208.04ZM353.466 208.296L357.946 206.248V179.752L353.466 178.536V177.768L363.13 175.144V183.784C364.026 181.011 365.413 178.877 367.29 177.384C369.167 175.891 371.343 175.144 373.818 175.144C376.805 175.144 379.237 176.104 381.114 178.024C382.991 179.944 383.93 182.653 383.93 186.152V206.248L388.41 208.296V209H374.266V208.296L378.746 206.248V186.216C378.746 183.613 378.149 181.693 376.954 180.456C375.759 179.176 374.181 178.536 372.218 178.536C369.999 178.536 368.037 179.347 366.33 180.968C364.666 182.589 363.599 184.936 363.13 188.008V206.248L367.61 208.296V209H353.466V208.296ZM400.327 209.64C397.383 209.64 395.057 208.893 393.351 207.4C391.687 205.907 390.855 203.901 390.855 201.384C390.855 198.696 391.815 196.541 393.735 194.92C395.655 193.256 398.577 191.955 402.503 191.016L411.591 188.712V185.064C411.591 182.461 410.929 180.435 409.607 178.984C408.327 177.491 406.62 176.744 404.487 176.744C402.439 176.744 400.668 177.491 399.175 178.984C397.724 180.435 396.999 182.525 396.999 185.256C396.999 185.939 397.02 186.451 397.062 186.792L391.687 185.768C391.687 183.677 392.241 181.843 393.351 180.264C394.46 178.643 395.996 177.384 397.959 176.488C399.921 175.592 402.14 175.144 404.615 175.144C408.497 175.144 411.484 176.147 413.575 178.152C415.708 180.157 416.775 182.952 416.775 186.536V206.248L421.255 208.296V209H411.591V201.576C409.372 206.952 405.617 209.64 400.327 209.64ZM396.423 200.616C396.423 202.451 396.956 203.923 398.023 205.032C399.089 206.099 400.604 206.632 402.567 206.632C404.785 206.632 406.663 205.949 408.199 204.584C409.777 203.219 410.908 201.277 411.591 198.76V190.248L405.062 191.976C402.161 192.787 399.985 193.896 398.535 195.304C397.127 196.712 396.423 198.483 396.423 200.616ZM434.442 209.64C432.052 209.64 430.154 209 428.746 207.72C427.38 206.44 426.698 204.435 426.698 201.704V177.768H420.745V177C423.476 176.531 425.716 175.571 427.466 174.12C429.258 172.669 430.474 170.536 431.114 167.72H431.882V175.784L440.074 174.952L440.458 177.768H431.882V202.28C431.882 203.987 432.287 205.245 433.098 206.056C433.951 206.824 435.06 207.208 436.426 207.208C437.962 207.208 439.178 206.888 440.074 206.248L440.522 206.888C438.858 208.723 436.831 209.64 434.442 209.64ZM456.418 209.64C453.389 209.64 450.935 208.68 449.058 206.76C447.223 204.84 446.306 202.131 446.306 198.632V179.752L441.826 178.536V177.768L451.49 175.144V198.568C451.49 201.171 452.087 203.112 453.282 204.392C454.477 205.629 456.055 206.248 458.018 206.248C460.194 206.248 462.114 205.437 463.778 203.816C465.442 202.195 466.53 199.848 467.042 196.776V179.752L462.562 178.536V177.768L472.29 175.144V206.248L476.77 208.296V209H467.042V201C466.189 203.773 464.802 205.907 462.882 207.4C461.005 208.893 458.85 209.64 456.418 209.64ZM491.961 209.64C488.974 209.64 486.329 209.064 484.025 207.912C481.764 206.76 480.078 205.331 478.969 203.624L481.401 198.056L482.105 198.12C482.745 201.107 483.961 203.517 485.753 205.352C487.545 207.144 489.636 208.04 492.025 208.04C494.073 208.04 495.78 207.4 497.145 206.12C498.51 204.84 499.193 203.261 499.193 201.384C499.193 197.928 497.23 195.581 493.305 194.344L488.185 192.744C485.668 191.976 483.726 190.909 482.361 189.544C480.996 188.136 480.313 186.259 480.313 183.912C480.313 181.309 481.358 179.197 483.449 177.576C485.582 175.955 488.249 175.144 491.449 175.144C493.625 175.144 495.673 175.549 497.593 176.36C499.556 177.128 501.156 178.195 502.393 179.56L500.793 184.808L500.025 184.744C499.47 182.355 498.382 180.435 496.761 178.984C495.182 177.491 493.39 176.744 491.385 176.744C489.508 176.744 487.95 177.277 486.713 178.344C485.476 179.368 484.857 180.712 484.857 182.376C484.857 183.741 485.284 184.851 486.137 185.704C486.99 186.557 488.356 187.283 490.233 187.88L495.417 189.48C501.22 191.229 504.121 194.621 504.121 199.656C504.121 201.533 503.588 203.24 502.521 204.776C501.497 206.269 500.046 207.464 498.169 208.36C496.334 209.213 494.265 209.64 491.961 209.64ZM544.468 209.64C540.329 209.64 536.489 208.723 532.948 206.888C529.449 205.053 526.633 202.344 524.5 198.76C522.409 195.176 521.364 190.888 521.364 185.896C521.364 180.819 522.473 176.509 524.692 172.968C526.953 169.384 529.876 166.696 533.46 164.904C537.086 163.112 540.905 162.216 544.916 162.216C548.542 162.216 551.657 162.771 554.26 163.88C556.905 164.947 559.273 166.525 561.364 168.616L559.06 175.656L558.292 175.528C557.353 172.328 555.668 169.619 553.236 167.4C550.804 165.181 548.03 164.072 544.916 164.072C541.588 164.072 538.58 164.925 535.892 166.632C533.246 168.296 531.156 170.749 529.62 173.992C528.084 177.192 527.316 180.989 527.316 185.384C527.316 189.651 528.19 193.32 529.94 196.392C531.732 199.464 533.993 201.789 536.724 203.368C539.454 204.947 542.249 205.736 545.108 205.736C549.246 205.736 552.66 204.776 555.347 202.856C558.036 200.893 560.169 197.757 561.748 193.448L562.644 193.64C561.748 198.717 559.657 202.664 556.372 205.48C553.129 208.253 549.161 209.64 544.468 209.64ZM574.889 209.64C571.945 209.64 569.62 208.893 567.913 207.4C566.249 205.907 565.417 203.901 565.417 201.384C565.417 198.696 566.377 196.541 568.297 194.92C570.217 193.256 573.14 191.955 577.065 191.016L586.153 188.712V185.064C586.153 182.461 585.492 180.435 584.169 178.984C582.889 177.491 581.182 176.744 579.049 176.744C577.001 176.744 575.23 177.491 573.737 178.984C572.286 180.435 571.561 182.525 571.561 185.256C571.561 185.939 571.582 186.451 571.625 186.792L566.249 185.768C566.249 183.677 566.804 181.843 567.913 180.264C569.022 178.643 570.558 177.384 572.521 176.488C574.484 175.592 576.702 175.144 579.177 175.144C583.06 175.144 586.046 176.147 588.137 178.152C590.27 180.157 591.337 182.952 591.337 186.536V206.248L595.817 208.296V209H586.153V201.576C583.934 206.952 580.18 209.64 574.889 209.64ZM570.985 200.616C570.985 202.451 571.518 203.923 572.585 205.032C573.652 206.099 575.166 206.632 577.129 206.632C579.348 206.632 581.225 205.949 582.761 204.584C584.34 203.219 585.47 201.277 586.153 198.76V190.248L579.625 191.976C576.724 192.787 574.548 193.896 573.097 195.304C571.689 196.712 570.985 198.483 570.985 200.616ZM596.703 220.264L601.183 218.216V179.752L596.703 178.536V177.768L606.367 175.144V183.592C607.263 180.904 608.692 178.835 610.655 177.384C612.66 175.891 614.879 175.144 617.311 175.144C620.127 175.144 622.58 175.869 624.671 177.32C626.804 178.771 628.447 180.819 629.599 183.464C630.751 186.067 631.326 189.053 631.326 192.424C631.326 195.709 630.623 198.675 629.215 201.32C627.849 203.923 625.929 205.971 623.455 207.464C621.023 208.915 618.271 209.64 615.199 209.64C613.449 209.64 611.849 209.363 610.399 208.808C608.991 208.211 607.647 207.208 606.367 205.8V218.216L612.575 220.264V220.968H596.703V220.264ZM615.007 208.168C617.097 208.168 618.953 207.464 620.575 206.056C622.196 204.605 623.433 202.685 624.287 200.296C625.183 197.907 625.631 195.283 625.631 192.424C625.631 188.328 624.756 184.936 623.007 182.248C621.257 179.517 618.868 178.152 615.839 178.152C613.577 178.152 611.551 178.984 609.759 180.648C607.967 182.312 606.836 184.531 606.367 187.304V201.064C608.287 205.8 611.167 208.168 615.007 208.168ZM648.673 208.296V209H634.529V208.296L639.009 206.248V179.752L634.529 178.536V177.768L644.193 175.144V206.248L648.673 208.296ZM641.377 170.472C640.353 170.472 639.478 170.109 638.753 169.384C638.07 168.659 637.729 167.784 637.729 166.76C637.729 165.779 638.07 164.947 638.753 164.264C639.478 163.539 640.353 163.176 641.377 163.176C642.443 163.176 643.339 163.539 644.065 164.264C644.79 164.947 645.153 165.779 645.153 166.76C645.153 167.784 644.79 168.659 644.065 169.384C643.339 170.109 642.443 170.472 641.377 170.472ZM663.067 209.64C660.677 209.64 658.779 209 657.371 207.72C656.005 206.44 655.323 204.435 655.323 201.704V177.768H649.37V177C652.101 176.531 654.341 175.571 656.091 174.12C657.883 172.669 659.099 170.536 659.739 167.72H660.507V175.784L668.699 174.952L669.083 177.768H660.507V202.28C660.507 203.987 660.912 205.245 661.723 206.056C662.576 206.824 663.685 207.208 665.051 207.208C666.587 207.208 667.803 206.888 668.699 206.248L669.147 206.888C667.483 208.723 665.456 209.64 663.067 209.64ZM681.139 209.64C678.195 209.64 675.87 208.893 674.163 207.4C672.499 205.907 671.667 203.901 671.667 201.384C671.667 198.696 672.627 196.541 674.547 194.92C676.467 193.256 679.39 191.955 683.315 191.016L692.403 188.712V185.064C692.403 182.461 691.742 180.435 690.419 178.984C689.139 177.491 687.432 176.744 685.299 176.744C683.251 176.744 681.48 177.491 679.987 178.984C678.536 180.435 677.811 182.525 677.811 185.256C677.811 185.939 677.832 186.451 677.875 186.792L672.499 185.768C672.499 183.677 673.054 181.843 674.163 180.264C675.272 178.643 676.808 177.384 678.771 176.488C680.734 175.592 682.952 175.144 685.427 175.144C689.31 175.144 692.296 176.147 694.387 178.152C696.52 180.157 697.587 182.952 697.587 186.536V206.248L702.067 208.296V209H692.403V201.576C690.184 206.952 686.43 209.64 681.139 209.64ZM677.235 200.616C677.235 202.451 677.768 203.923 678.835 205.032C679.902 206.099 681.416 206.632 683.379 206.632C685.598 206.632 687.475 205.949 689.011 204.584C690.59 203.219 691.72 201.277 692.403 198.76V190.248L685.875 191.976C682.974 192.787 680.798 193.896 679.347 195.304C677.939 196.712 677.235 198.483 677.235 200.616ZM717.353 208.296V209H703.145V208.296L707.625 206.248V166.184L703.145 164.968V164.2L712.873 161.576V206.248L717.353 208.296Z" fill="#F5F5F3" style="fill:#F5F5F3;fill:color(display-p3 0.9608 0.9608 0.9529);fill-opacity:1;"/>
<path d="M460.4 254.78L462.2 253.96V241.62L460.4 240.8V240.58H465.76V240.8L463.96 241.62V254.48L469.56 254.14L470.9 251.8H471.14L470.58 255H460.4V254.78ZM476.753 255.2C475.793 255.2 474.927 254.967 474.153 254.5C473.393 254.033 472.8 253.393 472.373 252.58C471.947 251.753 471.733 250.827 471.733 249.8C471.733 248.773 471.947 247.853 472.373 247.04C472.8 246.227 473.393 245.587 474.153 245.12C474.927 244.653 475.793 244.42 476.753 244.42C477.713 244.42 478.573 244.653 479.333 245.12C480.093 245.587 480.687 246.227 481.113 247.04C481.553 247.853 481.773 248.773 481.773 249.8C481.773 250.827 481.553 251.753 481.113 252.58C480.687 253.393 480.087 254.033 479.313 254.5C478.553 254.967 477.7 255.2 476.753 255.2ZM476.753 254.7C477.367 254.7 477.92 254.493 478.413 254.08C478.907 253.653 479.293 253.073 479.573 252.34C479.853 251.593 479.993 250.747 479.993 249.8C479.993 248.853 479.847 248.013 479.553 247.28C479.273 246.533 478.887 245.953 478.393 245.54C477.9 245.127 477.353 244.92 476.753 244.92C476.14 244.92 475.587 245.127 475.093 245.54C474.6 245.953 474.213 246.533 473.933 247.28C473.653 248.013 473.513 248.853 473.513 249.8C473.513 250.747 473.653 251.593 473.933 252.34C474.213 253.087 474.6 253.667 475.093 254.08C475.587 254.493 476.14 254.7 476.753 254.7ZM482.763 254.78L484.163 254.14V245.86L482.763 245.48V245.24L485.783 244.42V247.12C486.063 246.253 486.496 245.587 487.083 245.12C487.669 244.653 488.349 244.42 489.123 244.42C490.056 244.42 490.816 244.72 491.403 245.32C491.989 245.92 492.283 246.767 492.283 247.86V254.14L493.683 254.78V255H489.263V254.78L490.663 254.14V247.88C490.663 247.067 490.476 246.467 490.103 246.08C489.729 245.68 489.236 245.48 488.623 245.48C487.929 245.48 487.316 245.733 486.783 246.24C486.263 246.747 485.929 247.48 485.783 248.44V254.14L487.183 254.78V255H482.763V254.78ZM498.907 255.2C498.014 255.2 497.234 254.973 496.567 254.52C495.901 254.067 495.387 253.433 495.027 252.62C494.667 251.807 494.487 250.867 494.487 249.8C494.487 248.773 494.707 247.853 495.147 247.04C495.587 246.213 496.187 245.573 496.947 245.12C497.721 244.653 498.587 244.42 499.547 244.42C500.081 244.42 500.567 244.513 501.007 244.7C501.461 244.873 501.887 245.18 502.287 245.62V241.62L500.887 241.24V241L503.927 240.18V254.14L505.327 254.78V255H502.287V252.56C502.007 253.4 501.561 254.053 500.947 254.52C500.334 254.973 499.654 255.2 498.907 255.2ZM499.347 254.26C500.054 254.26 500.687 254 501.247 253.48C501.807 252.96 502.154 252.267 502.287 251.4V247.1C501.714 245.62 500.821 244.88 499.607 244.88C498.954 244.88 498.374 245.107 497.867 245.56C497.361 246 496.967 246.593 496.687 247.34C496.407 248.087 496.267 248.907 496.267 249.8C496.267 250.64 496.387 251.4 496.627 252.08C496.881 252.747 497.241 253.28 497.707 253.68C498.174 254.067 498.721 254.26 499.347 254.26ZM511.128 255.2C510.168 255.2 509.302 254.967 508.528 254.5C507.768 254.033 507.175 253.393 506.748 252.58C506.322 251.753 506.108 250.827 506.108 249.8C506.108 248.773 506.322 247.853 506.748 247.04C507.175 246.227 507.768 245.587 508.528 245.12C509.302 244.653 510.168 244.42 511.128 244.42C512.088 244.42 512.948 244.653 513.708 245.12C514.468 245.587 515.062 246.227 515.488 247.04C515.928 247.853 516.148 248.773 516.148 249.8C516.148 250.827 515.928 251.753 515.488 252.58C515.062 253.393 514.462 254.033 513.688 254.5C512.928 254.967 512.075 255.2 511.128 255.2ZM511.128 254.7C511.742 254.7 512.295 254.493 512.788 254.08C513.282 253.653 513.668 253.073 513.948 252.34C514.228 251.593 514.368 250.747 514.368 249.8C514.368 248.853 514.222 248.013 513.928 247.28C513.648 246.533 513.262 245.953 512.768 245.54C512.275 245.127 511.728 244.92 511.128 244.92C510.515 244.92 509.962 245.127 509.468 245.54C508.975 245.953 508.588 246.533 508.308 247.28C508.028 248.013 507.888 248.853 507.888 249.8C507.888 250.747 508.028 251.593 508.308 252.34C508.588 253.087 508.975 253.667 509.468 254.08C509.962 254.493 510.515 254.7 511.128 254.7ZM517.138 254.78L518.538 254.14V245.86L517.138 245.48V245.24L520.158 244.42V247.12C520.438 246.253 520.871 245.587 521.458 245.12C522.044 244.653 522.724 244.42 523.498 244.42C524.431 244.42 525.191 244.72 525.778 245.32C526.364 245.92 526.658 246.767 526.658 247.86V254.14L528.058 254.78V255H523.638V254.78L525.038 254.14V247.88C525.038 247.067 524.851 246.467 524.478 246.08C524.104 245.68 523.611 245.48 522.998 245.48C522.304 245.48 521.691 245.733 521.158 246.24C520.638 246.747 520.304 247.48 520.158 248.44V254.14L521.558 254.78V255H517.138V254.78Z" fill="#F5F5F3" style="fill:#F5F5F3;fill:color(display-p3 0.9608 0.9608 0.9529);fill-opacity:1;"/>
</g>
<defs>
<filter id="filter0_d_3_129" x="0" y="0" width="733" height="414" filterUnits="userSpaceOnUse" color-interpolation-filters="sRGB">
<feFlood flood-opacity="0" result="BackgroundImageFix"/>
<feColorMatrix in="SourceAlpha" type="matrix" values="0 0 0 0 0 0 0 0 0 0 0 0 0 0 0 0 0 0 127 0" result="hardAlpha"/>
<feOffset dy="4"/>
<feGaussianBlur stdDeviation="2"/>
<feComposite in2="hardAlpha" operator="out"/>
<feColorMatrix type="matrix" values="0 0 0 0 0 0 0 0 0 0 0 0 0 0 0 0 0 0 0.25 0"/>
<feBlend mode="normal" in2="BackgroundImageFix" result="effect1_dropShadow_3_129"/>
<feBlend mode="normal" in="SourceGraphic" in2="effect1_dropShadow_3_129" result="shape"/>
</filter>
<clipPath id="clip0_3_129">
<rect width="725" height="406" fill="white" style="fill:white;fill-opacity:1;" transform="translate(4)"/>
</clipPath>
<clipPath id="clip1_3_129">
<rect width="256" height="406" fill="white" style="fill:white;fill-opacity:1;" transform="translate(4)"/>
</clipPath>
</defs>
</svg>
